# xmcd
#
# Track frame offsets:
#	150
#	15686
#	32562
#	50619
#	66265
#	86716
#	107452
#	125823
#	142321
#	161160
#	176198
#	193423
#	209110
#	226019
#	239341
#	257845
#	276629
#	293383
#	310390
#
# Disc length: 4388 seconds
#
# Revision: 0
# Processed by: cddbd v1.5.1PL0 Copyright (c) Steve Scherf et al.
# Submitted via: dBpowerAMP V4.0
#
DISCID=2f112213
DTITLE=Various Artist - Planete Rap 2004 Volume 2
DYEAR=1900
DGENRE=
TTITLE0=Un Gaou a Oran - 
TTITLE1=Antilope sa Party - 
TTITLE2=Suga Suga - 
TTITLE3=Naughty Girl - 
TTITLE4=N°10 - 
TTITLE5=One Call Away - 2222
TTITLE6=aaa - Seul au Monde - 
TTITLE7=Fuck It - 
TTITLE8=Thank You - 
TTITLE9=Trick Me - 
TTITLE10=Un Ange Dans le Ciel - 
TTITLE11=Sobri (Notre Destin) - 
TTITLE12=The Way You Move - 
TTITLE13=Reviens Dans ma Vie - 
TTITLE14=Tout ce Que tu Es - 
TTITLE15=Banana Style - 
TTITLE16=Le Son Qui Tue - 
TTITLE17=Par Tradition - 
TTITLE18=a. Fit But You Know It - 
EXTD=
EXTT0=
EXTT1=
EXTT2=
EXTT3=
EXTT4=
EXTT5=
EXTT6=
EXTT7=
EXTT8=
EXTT9=
EXTT10=
EXTT11=
EXTT12=
EXTT13=
EXTT14=
EXTT15=
EXTT16=
EXTT17=
EXTT18=
PLAYORDER=
